<?xml version="1.0" encoding="utf-8"?>
<svg width="64px" height="64px" viewBox="0 0 64 64" version="1.1" xmlns="http://www.w3.org/2000/svg" xmlns:xlink="http://www.w3.org/1999/xlink">
  <defs>
    <circle id="path-1" cx="28" cy="28" r="28"></circle>
    <filter x="-12.5%" y="-8.9%" width="125.0%" height="125.0%" filterUnits="objectBoundingBox" id="filter-2">
      <feOffset dx="0" dy="2" in="SourceAlpha" result="shadowOffsetOuter1"></feOffset>
      <feGaussianBlur stdDeviation="2" in="shadowOffsetOuter1" result="shadowBlurOuter1"></feGaussianBlur>
      <feColorMatrix values="0 0 0 0 0   0 0 0 0 0   0 0 0 0 0  0 0 0 0.2 0" type="matrix" in="shadowBlurOuter1"></feColorMatrix>
    </filter>
  </defs>
  <g id="Page-1" stroke="none" stroke-width="1" fill="none" fill-rule="evenodd">
    <g id="8-copy" transform="translate(-1235.000000, -741.000000)" fill-rule="nonzero">
      <g id="download-copy" transform="translate(1267.000000, 771.000000) scale(-1, 1) translate(-1267.000000, -771.000000) translate(1239.000000, 743.000000)">
        <g id="Oval">
          <use fill="black" fill-opacity="1" filter="url(#filter-2)" xlink:href="#path-1"></use>
          <use fill="#444444" xlink:href="#path-1"></use>
        </g>
        <path d="M24.293,19.707 L32.586,28 L24.293,36.293 C23.902,36.684 23.902,37.317 24.293,37.707 C24.684,38.098 25.317,38.098 25.707,37.707 L34.707,28.707 C34.893,28.521 35,28.263 35,28 C35,27.737 34.893,27.479 34.707,27.293 L25.707,18.293 C25.316,17.902 24.683,17.902 24.293,18.293 C23.903,18.684 23.902,19.317 24.293,19.707 Z" id="Path" fill="#FFFFFF"></path>
      </g>
    </g>
  </g>
</svg>